PathFileType	4	(x/y/z)	S09_SL_Cal_T01
DataRate	CameraRate	NumFrames	NumMarkers	Units	OrigDataRate	OrigDataStartFrame	OrigNumFrames
240	240	10	51	mm	240	301	2400
Frame#	Time	Sternum			R.Acromium			L.Acromium			Top.Head			R.ASIS			L.ASIS			R.PSIS			L.PSIS			R.Great.Tro			L.Great.Tro			R.Iliac.Crest			L.Iliac.Crest			V.Sacral			R.Thigh.Upper.Post			R.Thigh.Lower.Ant			R.Thigh.Lower.Post			R.Thigh.Upper.Ant			R.Knee.Lat			R.Knee.Med			R.Shank.Upper.Post			R.Shank.Lower.Ant			R.Shank.Lower.Post			R.Shank.Upper.Ant			R.Ankle.Lat			R.Ankle.Med			R.Heel.Upper			R.Heel.Med			R.Heel.Lat			R.Toe.Lat			R.Toe.Med			R.Toe.Tip			L.Thigh.Upper.Post			L.Thigh.Lower.Ant			L.Thigh.Lower.Post			L.Thigh.Upper.Ant			L.Knee.Lat			L.Knee.Med			L.Shank.Upper.Post			L.Shank.Lower.Ant			L.Shank.Lower.Post			L.Shank.Upper.Ant			L.Ankle.Lat			L.Ankle.Med			L.Heel.Upper			L.Heel.Med			L.Heel.Lat			L.Toe.Lat			L.Toe.Med			L.Toe.Tip			Cervical.Spine			Back			
		X1	Y1	Z1	X2	Y2	Z2	X3	Y3	Z3	X4	Y4	Z4	X5	Y5	Z5	X6	Y6	Z6	X7	Y7	Z7	X8	Y8	Z8	X9	Y9	Z9	X10	Y10	Z10	X11	Y11	Z11	X12	Y12	Z12	X13	Y13	Z13	X14	Y14	Z14	X15	Y15	Z15	X16	Y16	Z16	X17	Y17	Z17	X18	Y18	Z18	X19	Y19	Z19	X20	Y20	Z20	X21	Y21	Z21	X22	Y22	Z22	X23	Y23	Z23	X24	Y24	Z24	X25	Y25	Z25	X26	Y26	Z26	X27	Y27	Z27	X28	Y28	Z28	X29	Y29	Z29	X30	Y30	Z30	X31	Y31	Z31	X32	Y32	Z32	X33	Y33	Z33	X34	Y34	Z34	X35	Y35	Z35	X36	Y36	Z36	X37	Y37	Z37	X38	Y38	Z38	X39	Y39	Z39	X40	Y40	Z40	X41	Y41	Z41	X42	Y42	Z42	X43	Y43	Z43	X44	Y44	Z44	X45	Y45	Z45	X46	Y46	Z46	X47	Y47	Z47	X48	Y48	Z48	X49	Y49	Z49	X50	Y50	Z50	X51	Y51	Z51	

301	1.25	575.25	1202.9	293.26	439	1457	441.58	439.87	1449.1	126.75	499.45	1750.7	282.07	537.97	1036.3	400.28	525.57	1032.9	153.79	315.27	1060.9	332.36	316.96	1061.8	242.78	455.08	952.27	475.71	444.83	947.06	91.723	447.26	1115.4	447.23	416.93	1126.6	123.2	296.85	1026.5	285.71	423.52	710.35	466.28	476.53	599.09	427.04	402.61	619.9	446.59	489.63	687.02	449.06	441.06	526	420.7	420.37	511.03	303.12	361.42	353.91	439.97	430.58	294.95	426.33	359.26	277.75	430.81	426.03	368.38	437.22	392.12	93.907	411.43	422.63	105.51	328.43	332.25	76.273	361.96	342.56	44.533	332.74	333.78	46.522	397.15	492.55	39.956	453.9	542.25	46.2	348.19	588.82	60.954	395.59	362.76	701.8	122.16	431.82	596.28	112.71	360.26	612.31	132.52	429.14	684.59	96.941	410.95	515.94	119.11	423.7	515.54	254.48	363.7	382.55	102.69	430.58	295.1	112.98	367.2	305.48	105.98	426.4	372.9	110.4	403.59	105.95	126.11	417.44	96.644	217.58	334.59	69.52	172.81	345.78	45.685	206.3	337.47	41.841	144.79	512.14	43.815	95.701	545.65	44.71	205.2	598.91	62.003	148.78	370.44	1500.9	294.38	311.94	1242.2	282.33
302	1.2542	575.26	1202.9	293.25	439.01	1457	441.58	439.9	1449.1	126.75	499.47	1750.7	282.08	537.98	1036.3	400.25	525.58	1032.9	153.76	315.28	1060.9	332.33	316.98	1061.8	242.75	455.09	952.28	475.68	444.84	947.06	91.698	447.27	1115.4	447.21	416.96	1126.6	123.18	296.86	1026.5	285.68	423.52	710.35	466.26	476.53	599.09	427.01	402.62	619.9	446.57	489.64	687.02	449.03	441.07	526	420.68	420.38	511.04	303.11	361.42	353.91	439.95	430.58	294.96	426.32	359.26	277.75	430.8	426.04	368.38	437.21	392.12	93.909	411.43	422.63	105.51	328.43	332.25	76.274	361.96	342.56	44.532	332.74	333.78	46.522	397.15	492.55	39.956	453.9	542.25	46.2	348.19	588.82	60.955	395.59	362.78	701.8	122.13	431.84	596.28	112.7	360.3	612.31	132.51	429.16	684.59	96.922	410.97	515.94	119.1	423.71	515.54	254.47	363.72	382.55	102.67	430.59	295.1	112.98	367.21	305.48	105.97	426.42	372.89	110.39	403.6	105.96	126.11	417.44	96.645	217.58	334.59	69.521	172.81	345.78	45.687	206.3	337.47	41.842	144.79	512.14	43.815	95.701	545.65	44.706	205.2	598.91	61.999	148.78	370.46	1500.9	294.38	311.95	1242.2	282.31
303	1.2583	575.28	1202.9	293.24	439.02	1456.9	441.57	439.93	1449.1	126.74	499.48	1750.7	282.08	537.99	1036.3	400.23	525.6	1032.9	153.73	315.29	1060.9	332.3	316.99	1061.8	242.72	455.1	952.28	475.65	444.86	947.06	91.672	447.28	1115.4	447.18	416.98	1126.6	123.15	296.87	1026.5	285.65	423.53	710.35	466.24	476.54	599.09	426.99	402.62	619.9	446.55	489.64	687.02	449.01	441.07	526	420.66	420.39	511.04	303.09	361.43	353.91	439.94	430.58	294.96	426.31	359.27	277.75	430.79	426.04	368.39	437.2	392.12	93.912	411.43	422.63	105.51	328.43	332.25	76.275	361.95	342.57	44.531	332.74	333.78	46.522	397.15	492.55	39.955	453.9	542.25	46.2	348.19	588.82	60.955	395.59	362.8	701.8	122.11	431.86	596.28	112.68	360.34	612.31	132.49	429.19	684.59	96.903	411	515.94	119.08	423.72	515.54	254.45	363.74	382.55	102.66	430.61	295.09	112.97	367.23	305.48	105.96	426.44	372.89	110.38	403.6	105.96	126.11	417.44	96.646	217.58	334.59	69.522	172.81	345.78	45.688	206.3	337.47	41.844	144.79	512.14	43.814	95.701	545.65	44.702	205.2	598.91	61.995	148.78	370.49	1500.9	294.37	311.97	1242.2	282.29
304	1.2625	575.29	1202.9	293.22	439.03	1456.9	441.57	439.97	1449.1	126.74	499.5	1750.7	282.09	538	1036.3	400.21	525.61	1032.9	153.71	315.3	1060.9	332.28	317	1061.8	242.69	455.11	952.29	475.62	444.87	947.06	91.646	447.28	1115.4	447.16	417	1126.6	123.13	296.89	1026.5	285.62	423.53	710.35	466.22	476.55	599.09	426.97	402.63	619.9	446.53	489.65	687.02	448.99	441.08	526	420.65	420.4	511.04	303.07	361.43	353.92	439.92	430.58	294.96	426.3	359.27	277.75	430.78	426.04	368.39	437.18	392.12	93.914	411.43	422.63	105.51	328.42	332.25	76.276	361.95	342.57	44.531	332.74	333.78	46.522	397.15	492.55	39.955	453.9	542.25	46.2	348.19	588.82	60.955	395.59	362.82	701.8	122.09	431.89	596.27	112.66	360.4	612.32	132.46	429.21	684.59	96.884	411.02	515.94	119.07	423.73	515.55	254.44	363.76	382.54	102.65	430.62	295.08	112.98	367.25	305.48	105.95	426.46	372.88	110.37	403.6	105.96	126.11	417.45	96.646	217.58	334.59	69.524	172.81	345.78	45.69	206.3	337.47	41.845	144.79	512.14	43.814	95.701	545.65	44.697	205.2	598.91	61.99	148.78	370.51	1500.9	294.36	311.98	1242.2	282.26
305	1.2667	575.3	1202.9	293.21	439.04	1456.9	441.57	440	1449.1	126.74	499.52	1750.7	282.09	538.01	1036.3	400.18	525.63	1032.9	153.68	315.31	1060.9	332.25	317.02	1061.8	242.65	455.11	952.29	475.6	444.89	947.06	91.62	447.29	1115.4	447.13	417.02	1126.6	123.1	296.9	1026.5	285.59	423.54	710.35	466.19	476.55	599.09	426.95	402.64	619.9	446.51	489.66	687.02	448.96	441.08	526	420.63	420.41	511.04	303.05	361.43	353.92	439.91	430.58	294.96	426.29	359.27	277.75	430.77	426.05	368.39	437.17	392.12	93.916	411.43	422.63	105.51	328.42	332.25	76.277	361.95	342.57	44.53	332.74	333.78	46.522	397.15	492.55	39.955	453.9	542.25	46.2	348.19	588.82	60.955	395.59	362.84	701.79	122.07	431.91	596.27	112.65	360.48	612.32	132.42	429.23	684.59	96.866	411.05	515.94	119.05	423.74	515.55	254.42	363.78	382.54	102.63	430.64	295.07	112.98	367.26	305.47	105.94	426.47	372.88	110.36	403.6	105.96	126.11	417.45	96.647	217.58	334.59	69.525	172.81	345.78	45.693	206.3	337.47	41.847	144.79	512.14	43.814	95.701	545.65	44.692	205.2	598.91	61.987	148.78	370.53	1500.9	294.36	311.99	1242.2	282.24
306	1.2708	575.31	1202.9	293.2	439.06	1456.9	441.56	440.03	1449.1	126.73	499.54	1750.7	282.1	538.01	1036.3	400.16	525.64	1032.9	153.66	315.33	1060.9	332.22	317.03	1061.8	242.62	455.12	952.29	475.57	444.9	947.06	91.594	447.29	1115.4	447.11	417.05	1126.6	123.08	296.91	1026.5	285.56	423.55	710.35	466.17	476.56	599.09	426.93	402.64	619.91	446.49	489.67	687.02	448.94	441.09	526.01	420.61	420.42	511.04	303.03	361.44	353.92	439.9	430.59	294.96	426.29	359.27	277.76	430.76	426.05	368.39	437.16	392.12	93.919	411.42	422.63	105.5	328.42	332.25	76.278	361.95	342.57	44.53	332.74	333.78	46.523	397.15	492.56	39.954	453.9	542.26	46.2	348.19	588.82	60.955	395.59	362.86	701.79	122.05	431.94	596.27	112.63	360.57	612.32	132.36	429.25	684.59	96.847	411.07	515.94	119.04	423.75	515.55	254.41	363.8	382.54	102.62	430.65	295.06	112.98	367.28	305.47	105.93	426.49	372.87	110.35	403.61	105.96	126.11	417.45	96.647	217.58	334.59	69.527	172.81	345.78	45.695	206.3	337.48	41.849	144.79	512.14	43.814	95.702	545.66	44.688	205.2	598.91	61.983	148.78	370.55	1500.9	294.35	312.01	1242.2	282.22
307	1.275	575.32	1202.9	293.18	439.07	1456.9	441.56	440.06	1449.1	126.73	499.55	1750.7	282.11	538.02	1036.3	400.13	525.66	1032.9	153.63	315.34	1060.9	332.19	317.04	1061.8	242.59	455.13	952.3	475.54	444.92	947.06	91.567	447.3	1115.4	447.08	417.07	1126.6	123.05	296.92	1026.5	285.53	423.55	710.35	466.15	476.57	599.09	426.9	402.65	619.91	446.47	489.68	687.02	448.92	441.1	526.01	420.6	420.44	511.04	303.02	361.44	353.92	439.88	430.59	294.96	426.28	359.28	277.76	430.75	426.05	368.39	437.15	392.11	93.921	411.42	422.63	105.5	328.42	332.25	76.279	361.95	342.57	44.531	332.74	333.78	46.523	397.15	492.56	39.953	453.9	542.26	46.2	348.19	588.82	60.955	395.59	362.88	701.79	122.03	431.96	596.27	112.62	360.69	612.32	132.29	429.28	684.59	96.829	411.09	515.94	119.02	423.76	515.55	254.4	363.82	382.54	102.6	430.66	295.05	112.98	367.29	305.47	105.92	426.51	372.86	110.35	403.61	105.96	126.11	417.45	96.646	217.58	334.6	69.529	172.81	345.78	45.698	206.3	337.48	41.851	144.79	512.14	43.814	95.702	545.66	44.683	205.21	598.91	61.98	148.78	370.57	1500.9	294.35	312.02	1242.2	282.19
308	1.2792	575.34	1202.9	293.17	439.08	1456.9	441.56	440.09	1449.1	126.73	499.57	1750.7	282.11	538.03	1036.3	400.11	525.67	1032.9	153.6	315.35	1061	332.17	317.05	1061.8	242.56	455.13	952.3	475.51	444.93	947.06	91.541	447.3	1115.4	447.06	417.09	1126.6	123.03	296.93	1026.5	285.5	423.56	710.36	466.13	476.58	599.09	426.88	402.66	619.91	446.45	489.69	687.02	448.89	441.1	526.01	420.58	420.45	511.04	303	361.45	353.93	439.87	430.59	294.96	426.27	359.28	277.76	430.74	426.06	368.4	437.13	392.11	93.923	411.42	422.63	105.5	328.41	332.25	76.281	361.95	342.57	44.531	332.74	333.78	46.524	397.15	492.56	39.953	453.9	542.26	46.199	348.19	588.82	60.954	395.59	362.9	701.78	122.01	431.98	596.26	112.61	360.83	612.32	132.21	429.3	684.59	96.81	411.12	515.94	119.01	423.77	515.55	254.38	363.84	382.54	102.59	430.67	295.03	112.99	367.31	305.47	105.91	426.53	372.86	110.34	403.62	105.96	126.11	417.45	96.645	217.58	334.6	69.531	172.81	345.78	45.701	206.3	337.48	41.854	144.79	512.14	43.813	95.703	545.66	44.678	205.21	598.91	61.977	148.78	370.6	1500.9	294.35	312.04	1242.2	282.17
309	1.2833	575.35	1202.9	293.16	439.09	1456.9	441.56	440.11	1449.1	126.72	499.59	1750.7	282.12	538.04	1036.3	400.09	525.69	1032.9	153.58	315.36	1061	332.14	317.07	1061.8	242.52	455.14	952.31	475.49	444.95	947.06	91.514	447.31	1115.4	447.03	417.11	1126.6	123.01	296.94	1026.6	285.47	423.57	710.36	466.11	476.59	599.1	426.86	402.66	619.91	446.43	489.7	687.02	448.87	441.11	526.01	420.57	420.46	511.04	302.98	361.45	353.93	439.85	430.6	294.96	426.26	359.28	277.76	430.73	426.06	368.4	437.12	392.11	93.925	411.42	422.63	105.5	328.41	332.25	76.282	361.95	342.57	44.531	332.74	333.78	46.525	397.15	492.56	39.952	453.9	542.26	46.199	348.19	588.83	60.954	395.59	362.92	701.78	121.99	432	596.26	112.59	361	612.32	132.1	429.32	684.59	96.792	411.14	515.94	119	423.78	515.55	254.37	363.86	382.54	102.58	430.69	295.02	112.99	367.32	305.47	105.91	426.55	372.85	110.33	403.62	105.97	126.1	417.45	96.643	217.58	334.6	69.532	172.81	345.78	45.703	206.3	337.48	41.857	144.79	512.14	43.813	95.703	545.66	44.674	205.21	598.91	61.974	148.78	370.62	1500.9	294.34	312.06	1242.2	282.15
310	1.2875	575.36	1202.9	293.14	439.11	1456.9	441.56	440.14	1449.1	126.72	499.61	1750.7	282.13	538.05	1036.3	400.06	525.7	1032.9	153.55	315.37	1061	332.11	317.08	1061.8	242.49	455.15	952.31	475.46	444.96	947.06	91.487	447.32	1115.4	447.01	417.13	1126.6	122.98	296.95	1026.6	285.44	423.57	710.36	466.09	476.6	599.1	426.84	402.67	619.91	446.41	489.71	687.02	448.85	441.12	526.02	420.55	420.47	511.04	302.96	361.46	353.93	439.84	430.6	294.97	426.25	359.29	277.77	430.72	426.07	368.4	437.11	392.11	93.927	411.42	422.63	105.5	328.41	332.25	76.283	361.95	342.57	44.532	332.73	333.78	46.526	397.15	492.56	39.952	453.9	542.26	46.198	348.19	588.83	60.953	395.59	362.94	701.78	121.97	432.03	596.26	112.58	361.21	612.32	131.96	429.34	684.58	96.773	411.16	515.94	118.98	423.79	515.55	254.35	363.88	382.54	102.56	430.7	295.01	113	367.34	305.47	105.9	426.57	372.84	110.32	403.62	105.97	126.1	417.45	96.642	217.58	334.6	69.534	172.81	345.78	45.706	206.3	337.48	41.86	144.79	512.14	43.813	95.704	545.66	44.669	205.21	598.91	61.971	148.78	370.64	1500.9	294.34	312.07	1242.2	282.13
